%TF.GenerationSoftware,KiCad,Pcbnew,5.1.9-73d0e3b20d~88~ubuntu18.04.1*%
%TF.CreationDate,2021-09-14T17:41:00-05:00*%
%TF.ProjectId,gpr20_board,67707232-305f-4626-9f61-72642e6b6963,rev?*%
%TF.SameCoordinates,Original*%
%TF.FileFunction,Soldermask,Bot*%
%TF.FilePolarity,Negative*%
%FSLAX46Y46*%
G04 Gerber Fmt 4.6, Leading zero omitted, Abs format (unit mm)*
G04 Created by KiCad (PCBNEW 5.1.9-73d0e3b20d~88~ubuntu18.04.1) date 2021-09-14 17:41:00*
%MOMM*%
%LPD*%
G01*
G04 APERTURE LIST*
%TA.AperFunction,Profile*%
%ADD10C,0.050000*%
%TD*%
%ADD11C,3.200000*%
%ADD12O,1.600000X1.600000*%
%ADD13R,1.600000X1.600000*%
%ADD14C,1.600000*%
%ADD15C,3.500000*%
%ADD16R,1.524000X1.524000*%
%ADD17C,1.524000*%
%ADD18C,3.000000*%
%ADD19R,3.000000X3.000000*%
%ADD20R,1.700000X1.700000*%
%ADD21O,1.700000X1.700000*%
%ADD22C,1.530000*%
%ADD23R,1.530000X1.530000*%
G04 APERTURE END LIST*
D10*
X158000000Y-102000000D02*
X158000000Y-33000000D01*
X242000000Y-102000000D02*
X158000000Y-102000000D01*
X242000000Y-33000000D02*
X158000000Y-33000000D01*
X242000000Y-102000000D02*
X242000000Y-33000000D01*
D11*
%TO.C,REF\u002A\u002A*%
X193000000Y-70000000D03*
%TD*%
%TO.C,REF\u002A\u002A*%
X238000000Y-98000000D03*
%TD*%
D12*
%TO.C,A1*%
X185700000Y-37400000D03*
X173000000Y-55180000D03*
X185700000Y-39940000D03*
X173000000Y-52640000D03*
X185700000Y-42480000D03*
X173000000Y-50100000D03*
X185700000Y-45020000D03*
X173000000Y-47560000D03*
X185700000Y-47560000D03*
X173000000Y-45020000D03*
X185700000Y-50100000D03*
X173000000Y-42480000D03*
X185700000Y-52640000D03*
X173000000Y-39940000D03*
X185700000Y-55180000D03*
D13*
X173000000Y-37400000D03*
%TD*%
%TO.C,A2*%
X173000000Y-61000000D03*
D12*
X185700000Y-78780000D03*
X173000000Y-63540000D03*
X185700000Y-76240000D03*
X173000000Y-66080000D03*
X185700000Y-73700000D03*
X173000000Y-68620000D03*
X185700000Y-71160000D03*
X173000000Y-71160000D03*
X185700000Y-68620000D03*
X173000000Y-73700000D03*
X185700000Y-66080000D03*
X173000000Y-76240000D03*
X185700000Y-63540000D03*
X173000000Y-78780000D03*
X185700000Y-61000000D03*
%TD*%
D13*
%TO.C,C1*%
X191000000Y-50200000D03*
D14*
X196000000Y-50200000D03*
%TD*%
D15*
%TO.C,J1*%
X203470000Y-98510000D03*
X190330000Y-98510000D03*
D16*
X193400000Y-95800000D03*
D17*
X195900000Y-95800000D03*
X197900000Y-95800000D03*
X200400000Y-95800000D03*
%TD*%
D18*
%TO.C,J2*%
X164000000Y-43680000D03*
X164000000Y-48760000D03*
D19*
X164000000Y-38600000D03*
D18*
X164000000Y-53840000D03*
%TD*%
%TO.C,J3*%
X164000000Y-75960000D03*
D19*
X164000000Y-60720000D03*
D18*
X164000000Y-70880000D03*
X164000000Y-65800000D03*
%TD*%
D17*
%TO.C,J4*%
X181530000Y-95890000D03*
X179030000Y-95890000D03*
X177030000Y-95890000D03*
D16*
X174530000Y-95890000D03*
D15*
X171460000Y-98600000D03*
X184600000Y-98600000D03*
%TD*%
D19*
%TO.C,J5*%
X164000000Y-94000000D03*
D18*
X164000000Y-99080000D03*
%TD*%
%TO.C,J6*%
X164000000Y-87880000D03*
D19*
X164000000Y-82800000D03*
%TD*%
%TO.C,J7*%
X235600000Y-39600000D03*
D18*
X230520000Y-39600000D03*
%TD*%
%TO.C,J8*%
X212840000Y-39600000D03*
X217920000Y-39600000D03*
D19*
X223000000Y-39600000D03*
%TD*%
%TO.C,J9*%
X206400000Y-39800000D03*
D18*
X201320000Y-39800000D03*
X196240000Y-39800000D03*
%TD*%
%TO.C,J10*%
X236800000Y-58920000D03*
X236800000Y-53840000D03*
D19*
X236800000Y-64000000D03*
D18*
X236800000Y-48760000D03*
%TD*%
%TO.C,J11*%
X237000000Y-72560000D03*
D19*
X237000000Y-87800000D03*
D18*
X237000000Y-77640000D03*
X237000000Y-82720000D03*
%TD*%
D20*
%TO.C,J12*%
X190600000Y-37600000D03*
D21*
X190600000Y-40140000D03*
%TD*%
D20*
%TO.C,J13*%
X190400000Y-61000000D03*
D21*
X190400000Y-63540000D03*
%TD*%
%TO.C,J14*%
X210800000Y-86660000D03*
D20*
X210800000Y-89200000D03*
%TD*%
%TO.C,J15*%
X201120000Y-50400000D03*
D21*
X203660000Y-50400000D03*
X206200000Y-50400000D03*
%TD*%
D20*
%TO.C,J16*%
X203000000Y-79200000D03*
D21*
X200460000Y-79200000D03*
X197920000Y-79200000D03*
X195380000Y-79200000D03*
%TD*%
D20*
%TO.C,J17*%
X209000000Y-46400000D03*
D21*
X206460000Y-46400000D03*
%TD*%
D22*
%TO.C,U1*%
X215450000Y-55130000D03*
X228150000Y-55130000D03*
X215450000Y-57670000D03*
X215450000Y-60210000D03*
X215450000Y-62750000D03*
X215450000Y-65290000D03*
X215450000Y-52590000D03*
X215450000Y-50050000D03*
D23*
X215450000Y-47510000D03*
D22*
X228150000Y-52590000D03*
X228150000Y-50050000D03*
X228150000Y-47510000D03*
X228150000Y-57670000D03*
X228150000Y-60210000D03*
X228150000Y-62750000D03*
X228150000Y-65290000D03*
%TD*%
%TO.C,U2*%
X227950000Y-89090000D03*
X227950000Y-86550000D03*
X227950000Y-84010000D03*
X227950000Y-81470000D03*
X227950000Y-71310000D03*
X227950000Y-73850000D03*
X227950000Y-76390000D03*
D23*
X215250000Y-71310000D03*
D22*
X215250000Y-73850000D03*
X215250000Y-76390000D03*
X215250000Y-89090000D03*
X215250000Y-86550000D03*
X215250000Y-84010000D03*
X215250000Y-81470000D03*
X227950000Y-78930000D03*
X215250000Y-78930000D03*
%TD*%
D13*
%TO.C,U3*%
X200180000Y-56220000D03*
D12*
X207800000Y-74000000D03*
X200180000Y-58760000D03*
X207800000Y-71460000D03*
X200180000Y-61300000D03*
X207800000Y-68920000D03*
X200180000Y-63840000D03*
X207800000Y-66380000D03*
X200180000Y-66380000D03*
X207800000Y-63840000D03*
X200180000Y-68920000D03*
X207800000Y-61300000D03*
X200180000Y-71460000D03*
X207800000Y-58760000D03*
X200180000Y-74000000D03*
X207800000Y-56220000D03*
%TD*%
M02*
