M48
; DRILL file {KiCad 5.1.9-73d0e3b20d~88~ubuntu18.04.1} date Tue Sep 14 17:45:22 2021
; FORMAT={2:4/ absolute / inch / keep zeros}
; #@! TF.CreationDate,2021-09-14T17:45:22-05:00
; #@! TF.GenerationSoftware,Kicad,Pcbnew,5.1.9-73d0e3b20d~88~ubuntu18.04.1
FMAT,2
INCH
T1C0.0315
T2C0.0362
T3C0.0394
T4C0.0402
T5C0.0598
T6C0.0906
T7C0.1260
%
G90
G05
T1
X068110Y-014724
X068110Y-015724
X068110Y-016724
X068110Y-017724
X068110Y-018724
X068110Y-019724
X068110Y-020724
X068110Y-021724
X068110Y-024016
X068110Y-025016
X068110Y-026016
X068110Y-027016
X068110Y-028016
X068110Y-029016
X068110Y-030016
X068110Y-031016
X073110Y-014724
X073110Y-015724
X073110Y-016724
X073110Y-017724
X073110Y-018724
X073110Y-019724
X073110Y-020724
X073110Y-021724
X073110Y-024016
X073110Y-025016
X073110Y-026016
X073110Y-027016
X073110Y-028016
X073110Y-029016
X073110Y-030016
X073110Y-031016
X075197Y-019764
X077165Y-019764
X078811Y-022134
X078811Y-023134
X078811Y-024134
X078811Y-025134
X078811Y-026134
X078811Y-027134
X078811Y-028134
X078811Y-029134
X081811Y-022134
X081811Y-023134
X081811Y-024134
X081811Y-025134
X081811Y-026134
X081811Y-027134
X081811Y-028134
X081811Y-029134
T2
X068713Y-037752
X069697Y-037752
X070484Y-037752
X071469Y-037752
X076142Y-037717
X077126Y-037717
X077913Y-037717
X078898Y-037717
T3
X074961Y-024016
X074961Y-025016
X075039Y-014803
X075039Y-015803
X076921Y-031181
X077921Y-031181
X078921Y-031181
X079181Y-019843
X079921Y-031181
X080181Y-019843
X081181Y-019843
X081283Y-018268
X082283Y-018268
X082992Y-034118
X082992Y-035118
T4
X084744Y-028075
X084744Y-029075
X084744Y-030075
X084744Y-031075
X084744Y-032075
X084744Y-033075
X084744Y-034075
X084744Y-035075
X084823Y-018705
X084823Y-019705
X084823Y-020705
X084823Y-021705
X084823Y-022705
X084823Y-023705
X084823Y-024705
X084823Y-025705
X089744Y-028075
X089744Y-029075
X089744Y-030075
X089744Y-031075
X089744Y-032075
X089744Y-033075
X089744Y-034075
X089744Y-035075
X089823Y-018705
X089823Y-019705
X089823Y-020705
X089823Y-021705
X089823Y-022705
X089823Y-023705
X089823Y-024705
X089823Y-025705
T5
X064567Y-015197
X064567Y-017197
X064567Y-019197
X064567Y-021197
X064567Y-023906
X064567Y-025906
X064567Y-027906
X064567Y-029906
X064567Y-032598
X064567Y-034598
X064567Y-037008
X064567Y-039008
X077260Y-015669
X079260Y-015669
X081260Y-015669
X083795Y-015591
X085795Y-015591
X087795Y-015591
X090756Y-015591
X092756Y-015591
X093228Y-019197
X093228Y-021197
X093228Y-023197
X093228Y-025197
X093307Y-028567
X093307Y-030567
X093307Y-032567
X093307Y-034567
T6
X067504Y-038819
X072677Y-038819
X074933Y-038783
X080106Y-038783
T7
X075984Y-027559
X093701Y-038583
T0
M30
